<mxfile host="app.diagrams.net" agent="Mozilla/5.0 (Macintosh; Intel Mac OS X 10_15_7) AppleWebKit/537.36 (KHTML, like Gecko) Chrome/120.0.0.0 Safari/537.36" version="24.9.2">
  <diagram name="第 1 页" id="pD7Vnod6R_do5UHSJl3m">
    <mxGraphModel dx="2049" dy="1087" grid="1" gridSize="10" guides="1" tooltips="1" connect="1" arrows="1" fold="1" page="1" pageScale="1" pageWidth="1654" pageHeight="1169" math="0" shadow="0">
      <root>
        <mxCell id="0" />
        <mxCell id="1" parent="0" />
        <mxCell id="7kd3n6yTpFLGsjgeZZEd-77" value="" style="rounded=0;whiteSpace=wrap;html=1;dashed=1;dashPattern=12 12;" vertex="1" parent="1">
          <mxGeometry x="1280" y="5" width="940" height="774" as="geometry" />
        </mxCell>
        <mxCell id="7kd3n6yTpFLGsjgeZZEd-76" value="" style="rounded=0;whiteSpace=wrap;html=1;dashed=1;dashPattern=12 12;" vertex="1" parent="1">
          <mxGeometry x="10" y="6" width="940" height="774" as="geometry" />
        </mxCell>
        <mxCell id="7kd3n6yTpFLGsjgeZZEd-41" style="edgeStyle=orthogonalEdgeStyle;rounded=0;orthogonalLoop=1;jettySize=auto;html=1;exitX=0.5;exitY=1;exitDx=0;exitDy=0;entryX=0.5;entryY=0;entryDx=0;entryDy=0;" edge="1" parent="1" source="7kd3n6yTpFLGsjgeZZEd-14" target="7kd3n6yTpFLGsjgeZZEd-36">
          <mxGeometry relative="1" as="geometry" />
        </mxCell>
        <mxCell id="7kd3n6yTpFLGsjgeZZEd-14" value="" style="rounded=0;whiteSpace=wrap;html=1;fillColor=#dae8fc;strokeColor=#6c8ebf;" vertex="1" parent="1">
          <mxGeometry x="290" y="20" width="520" height="320" as="geometry" />
        </mxCell>
        <mxCell id="7kd3n6yTpFLGsjgeZZEd-47" style="edgeStyle=orthogonalEdgeStyle;rounded=0;orthogonalLoop=1;jettySize=auto;html=1;exitX=0.5;exitY=0;exitDx=0;exitDy=0;entryX=0;entryY=0.5;entryDx=0;entryDy=0;" edge="1" parent="1" source="7kd3n6yTpFLGsjgeZZEd-1" target="7kd3n6yTpFLGsjgeZZEd-14">
          <mxGeometry relative="1" as="geometry" />
        </mxCell>
        <mxCell id="7kd3n6yTpFLGsjgeZZEd-1" value="业务应用(Kafka客户端)" style="rounded=0;whiteSpace=wrap;html=1;fillColor=#ffe6cc;strokeColor=#d79b00;" vertex="1" parent="1">
          <mxGeometry x="20" y="360" width="130" height="60" as="geometry" />
        </mxCell>
        <mxCell id="7kd3n6yTpFLGsjgeZZEd-13" style="edgeStyle=orthogonalEdgeStyle;rounded=0;orthogonalLoop=1;jettySize=auto;html=1;exitX=0.5;exitY=1;exitDx=0;exitDy=0;startArrow=classic;startFill=1;strokeWidth=2;" edge="1" parent="1" source="7kd3n6yTpFLGsjgeZZEd-2" target="7kd3n6yTpFLGsjgeZZEd-9">
          <mxGeometry relative="1" as="geometry" />
        </mxCell>
        <mxCell id="7kd3n6yTpFLGsjgeZZEd-2" value="" style="rounded=0;whiteSpace=wrap;html=1;dashed=1;" vertex="1" parent="1">
          <mxGeometry x="365" y="56" width="400" height="100" as="geometry" />
        </mxCell>
        <mxCell id="7kd3n6yTpFLGsjgeZZEd-4" value="Broker" style="rounded=0;whiteSpace=wrap;html=1;" vertex="1" parent="1">
          <mxGeometry x="386" y="78" width="100" height="50" as="geometry" />
        </mxCell>
        <mxCell id="7kd3n6yTpFLGsjgeZZEd-5" value="Broker" style="rounded=0;whiteSpace=wrap;html=1;" vertex="1" parent="1">
          <mxGeometry x="515" y="78" width="100" height="50" as="geometry" />
        </mxCell>
        <mxCell id="7kd3n6yTpFLGsjgeZZEd-8" value="Broker" style="rounded=0;whiteSpace=wrap;html=1;" vertex="1" parent="1">
          <mxGeometry x="645" y="78" width="100" height="50" as="geometry" />
        </mxCell>
        <mxCell id="7kd3n6yTpFLGsjgeZZEd-9" value="" style="rounded=0;whiteSpace=wrap;html=1;dashed=1;" vertex="1" parent="1">
          <mxGeometry x="365" y="210" width="400" height="100" as="geometry" />
        </mxCell>
        <mxCell id="7kd3n6yTpFLGsjgeZZEd-10" value="Bookie" style="rounded=0;whiteSpace=wrap;html=1;" vertex="1" parent="1">
          <mxGeometry x="386" y="232" width="100" height="50" as="geometry" />
        </mxCell>
        <mxCell id="7kd3n6yTpFLGsjgeZZEd-11" value="Bookie" style="rounded=0;whiteSpace=wrap;html=1;" vertex="1" parent="1">
          <mxGeometry x="515" y="232" width="100" height="50" as="geometry" />
        </mxCell>
        <mxCell id="7kd3n6yTpFLGsjgeZZEd-12" value="Bookie" style="rounded=0;whiteSpace=wrap;html=1;" vertex="1" parent="1">
          <mxGeometry x="645" y="232" width="100" height="50" as="geometry" />
        </mxCell>
        <mxCell id="7kd3n6yTpFLGsjgeZZEd-15" value="Pulsar集群" style="text;html=1;align=center;verticalAlign=middle;whiteSpace=wrap;rounded=0;fillColor=#f5f5f5;fontColor=#333333;strokeColor=#666666;" vertex="1" parent="1">
          <mxGeometry x="290" y="20" width="70" height="30" as="geometry" />
        </mxCell>
        <mxCell id="7kd3n6yTpFLGsjgeZZEd-17" value="" style="rounded=0;whiteSpace=wrap;html=1;fillColor=#d5e8d4;strokeColor=#82b366;" vertex="1" parent="1">
          <mxGeometry x="290" y="557" width="520" height="170" as="geometry" />
        </mxCell>
        <mxCell id="7kd3n6yTpFLGsjgeZZEd-19" value="" style="rounded=0;whiteSpace=wrap;html=1;dashed=1;" vertex="1" parent="1">
          <mxGeometry x="365" y="593" width="400" height="100" as="geometry" />
        </mxCell>
        <mxCell id="7kd3n6yTpFLGsjgeZZEd-20" value="Broker" style="rounded=0;whiteSpace=wrap;html=1;" vertex="1" parent="1">
          <mxGeometry x="386" y="615" width="100" height="50" as="geometry" />
        </mxCell>
        <mxCell id="7kd3n6yTpFLGsjgeZZEd-21" value="Broker" style="rounded=0;whiteSpace=wrap;html=1;" vertex="1" parent="1">
          <mxGeometry x="515" y="615" width="100" height="50" as="geometry" />
        </mxCell>
        <mxCell id="7kd3n6yTpFLGsjgeZZEd-22" value="Broker" style="rounded=0;whiteSpace=wrap;html=1;" vertex="1" parent="1">
          <mxGeometry x="645" y="615" width="100" height="50" as="geometry" />
        </mxCell>
        <mxCell id="7kd3n6yTpFLGsjgeZZEd-27" value="Kafka集群" style="text;html=1;align=center;verticalAlign=middle;whiteSpace=wrap;rounded=0;fillColor=#f5f5f5;fontColor=#333333;strokeColor=#666666;" vertex="1" parent="1">
          <mxGeometry x="290" y="557" width="70" height="30" as="geometry" />
        </mxCell>
        <mxCell id="7kd3n6yTpFLGsjgeZZEd-42" style="edgeStyle=orthogonalEdgeStyle;rounded=0;orthogonalLoop=1;jettySize=auto;html=1;exitX=0.5;exitY=1;exitDx=0;exitDy=0;entryX=0.5;entryY=0;entryDx=0;entryDy=0;" edge="1" parent="1" source="7kd3n6yTpFLGsjgeZZEd-36" target="7kd3n6yTpFLGsjgeZZEd-17">
          <mxGeometry relative="1" as="geometry" />
        </mxCell>
        <mxCell id="7kd3n6yTpFLGsjgeZZEd-36" value="" style="rounded=0;whiteSpace=wrap;html=1;dashed=1;fillColor=#e1d5e7;strokeColor=#9673a6;" vertex="1" parent="1">
          <mxGeometry x="350" y="396" width="400" height="100" as="geometry" />
        </mxCell>
        <mxCell id="7kd3n6yTpFLGsjgeZZEd-37" value="Sink" style="rounded=0;whiteSpace=wrap;html=1;" vertex="1" parent="1">
          <mxGeometry x="414" y="434" width="89" height="42" as="geometry" />
        </mxCell>
        <mxCell id="7kd3n6yTpFLGsjgeZZEd-43" value="Sink" style="rounded=0;whiteSpace=wrap;html=1;" vertex="1" parent="1">
          <mxGeometry x="519" y="434" width="89" height="42" as="geometry" />
        </mxCell>
        <mxCell id="7kd3n6yTpFLGsjgeZZEd-44" value="Sink" style="rounded=0;whiteSpace=wrap;html=1;" vertex="1" parent="1">
          <mxGeometry x="619" y="434" width="89" height="42" as="geometry" />
        </mxCell>
        <mxCell id="7kd3n6yTpFLGsjgeZZEd-45" value="同步工具" style="text;html=1;align=center;verticalAlign=middle;whiteSpace=wrap;rounded=0;fillColor=#f5f5f5;fontColor=#333333;strokeColor=#666666;" vertex="1" parent="1">
          <mxGeometry x="350" y="396" width="60" height="30" as="geometry" />
        </mxCell>
        <mxCell id="7kd3n6yTpFLGsjgeZZEd-49" style="edgeStyle=orthogonalEdgeStyle;rounded=0;orthogonalLoop=1;jettySize=auto;html=1;exitX=0.5;exitY=1;exitDx=0;exitDy=0;entryX=0.5;entryY=0;entryDx=0;entryDy=0;" edge="1" parent="1" source="7kd3n6yTpFLGsjgeZZEd-50" target="7kd3n6yTpFLGsjgeZZEd-70">
          <mxGeometry relative="1" as="geometry" />
        </mxCell>
        <mxCell id="7kd3n6yTpFLGsjgeZZEd-50" value="" style="rounded=0;whiteSpace=wrap;html=1;fillColor=#dae8fc;strokeColor=#6c8ebf;" vertex="1" parent="1">
          <mxGeometry x="1590" y="32" width="520" height="320" as="geometry" />
        </mxCell>
        <mxCell id="7kd3n6yTpFLGsjgeZZEd-75" style="edgeStyle=orthogonalEdgeStyle;rounded=0;orthogonalLoop=1;jettySize=auto;html=1;exitX=0.5;exitY=1;exitDx=0;exitDy=0;entryX=0;entryY=0.5;entryDx=0;entryDy=0;" edge="1" parent="1" source="7kd3n6yTpFLGsjgeZZEd-52" target="7kd3n6yTpFLGsjgeZZEd-63">
          <mxGeometry relative="1" as="geometry" />
        </mxCell>
        <mxCell id="7kd3n6yTpFLGsjgeZZEd-52" value="业务应用(Kafka客户端)" style="rounded=0;whiteSpace=wrap;html=1;fillColor=#ffe6cc;strokeColor=#d79b00;" vertex="1" parent="1">
          <mxGeometry x="1320" y="372" width="130" height="60" as="geometry" />
        </mxCell>
        <mxCell id="7kd3n6yTpFLGsjgeZZEd-53" style="edgeStyle=orthogonalEdgeStyle;rounded=0;orthogonalLoop=1;jettySize=auto;html=1;exitX=0.5;exitY=1;exitDx=0;exitDy=0;startArrow=classic;startFill=1;strokeWidth=2;" edge="1" parent="1" source="7kd3n6yTpFLGsjgeZZEd-54" target="7kd3n6yTpFLGsjgeZZEd-58">
          <mxGeometry relative="1" as="geometry" />
        </mxCell>
        <mxCell id="7kd3n6yTpFLGsjgeZZEd-54" value="" style="rounded=0;whiteSpace=wrap;html=1;dashed=1;" vertex="1" parent="1">
          <mxGeometry x="1665" y="68" width="400" height="100" as="geometry" />
        </mxCell>
        <mxCell id="7kd3n6yTpFLGsjgeZZEd-55" value="Broker" style="rounded=0;whiteSpace=wrap;html=1;" vertex="1" parent="1">
          <mxGeometry x="1686" y="90" width="100" height="50" as="geometry" />
        </mxCell>
        <mxCell id="7kd3n6yTpFLGsjgeZZEd-56" value="Broker" style="rounded=0;whiteSpace=wrap;html=1;" vertex="1" parent="1">
          <mxGeometry x="1815" y="90" width="100" height="50" as="geometry" />
        </mxCell>
        <mxCell id="7kd3n6yTpFLGsjgeZZEd-57" value="Broker" style="rounded=0;whiteSpace=wrap;html=1;" vertex="1" parent="1">
          <mxGeometry x="1945" y="90" width="100" height="50" as="geometry" />
        </mxCell>
        <mxCell id="7kd3n6yTpFLGsjgeZZEd-58" value="" style="rounded=0;whiteSpace=wrap;html=1;dashed=1;" vertex="1" parent="1">
          <mxGeometry x="1665" y="222" width="400" height="100" as="geometry" />
        </mxCell>
        <mxCell id="7kd3n6yTpFLGsjgeZZEd-59" value="Bookie" style="rounded=0;whiteSpace=wrap;html=1;" vertex="1" parent="1">
          <mxGeometry x="1686" y="244" width="100" height="50" as="geometry" />
        </mxCell>
        <mxCell id="7kd3n6yTpFLGsjgeZZEd-60" value="Bookie" style="rounded=0;whiteSpace=wrap;html=1;" vertex="1" parent="1">
          <mxGeometry x="1815" y="244" width="100" height="50" as="geometry" />
        </mxCell>
        <mxCell id="7kd3n6yTpFLGsjgeZZEd-61" value="Bookie" style="rounded=0;whiteSpace=wrap;html=1;" vertex="1" parent="1">
          <mxGeometry x="1945" y="244" width="100" height="50" as="geometry" />
        </mxCell>
        <mxCell id="7kd3n6yTpFLGsjgeZZEd-62" value="Pulsar集群" style="text;html=1;align=center;verticalAlign=middle;whiteSpace=wrap;rounded=0;fillColor=#f5f5f5;fontColor=#333333;strokeColor=#666666;" vertex="1" parent="1">
          <mxGeometry x="1590" y="32" width="70" height="30" as="geometry" />
        </mxCell>
        <mxCell id="7kd3n6yTpFLGsjgeZZEd-63" value="" style="rounded=0;whiteSpace=wrap;html=1;fillColor=#d5e8d4;strokeColor=#82b366;" vertex="1" parent="1">
          <mxGeometry x="1590" y="569" width="520" height="170" as="geometry" />
        </mxCell>
        <mxCell id="7kd3n6yTpFLGsjgeZZEd-64" value="" style="rounded=0;whiteSpace=wrap;html=1;dashed=1;" vertex="1" parent="1">
          <mxGeometry x="1665" y="605" width="400" height="100" as="geometry" />
        </mxCell>
        <mxCell id="7kd3n6yTpFLGsjgeZZEd-65" value="Broker" style="rounded=0;whiteSpace=wrap;html=1;" vertex="1" parent="1">
          <mxGeometry x="1686" y="627" width="100" height="50" as="geometry" />
        </mxCell>
        <mxCell id="7kd3n6yTpFLGsjgeZZEd-66" value="Broker" style="rounded=0;whiteSpace=wrap;html=1;" vertex="1" parent="1">
          <mxGeometry x="1815" y="627" width="100" height="50" as="geometry" />
        </mxCell>
        <mxCell id="7kd3n6yTpFLGsjgeZZEd-67" value="Broker" style="rounded=0;whiteSpace=wrap;html=1;" vertex="1" parent="1">
          <mxGeometry x="1945" y="627" width="100" height="50" as="geometry" />
        </mxCell>
        <mxCell id="7kd3n6yTpFLGsjgeZZEd-68" value="Kafka集群" style="text;html=1;align=center;verticalAlign=middle;whiteSpace=wrap;rounded=0;fillColor=#f5f5f5;fontColor=#333333;strokeColor=#666666;" vertex="1" parent="1">
          <mxGeometry x="1590" y="569" width="70" height="30" as="geometry" />
        </mxCell>
        <mxCell id="7kd3n6yTpFLGsjgeZZEd-69" style="edgeStyle=orthogonalEdgeStyle;rounded=0;orthogonalLoop=1;jettySize=auto;html=1;exitX=0.5;exitY=1;exitDx=0;exitDy=0;entryX=0.5;entryY=0;entryDx=0;entryDy=0;" edge="1" parent="1" source="7kd3n6yTpFLGsjgeZZEd-70" target="7kd3n6yTpFLGsjgeZZEd-63">
          <mxGeometry relative="1" as="geometry" />
        </mxCell>
        <mxCell id="7kd3n6yTpFLGsjgeZZEd-70" value="" style="rounded=0;whiteSpace=wrap;html=1;dashed=1;fillColor=#e1d5e7;strokeColor=#9673a6;" vertex="1" parent="1">
          <mxGeometry x="1650" y="408" width="400" height="100" as="geometry" />
        </mxCell>
        <mxCell id="7kd3n6yTpFLGsjgeZZEd-71" value="Sink" style="rounded=0;whiteSpace=wrap;html=1;" vertex="1" parent="1">
          <mxGeometry x="1714" y="446" width="89" height="42" as="geometry" />
        </mxCell>
        <mxCell id="7kd3n6yTpFLGsjgeZZEd-72" value="Sink" style="rounded=0;whiteSpace=wrap;html=1;" vertex="1" parent="1">
          <mxGeometry x="1819" y="446" width="89" height="42" as="geometry" />
        </mxCell>
        <mxCell id="7kd3n6yTpFLGsjgeZZEd-73" value="Sink" style="rounded=0;whiteSpace=wrap;html=1;" vertex="1" parent="1">
          <mxGeometry x="1919" y="446" width="89" height="42" as="geometry" />
        </mxCell>
        <mxCell id="7kd3n6yTpFLGsjgeZZEd-74" value="同步工具" style="text;html=1;align=center;verticalAlign=middle;whiteSpace=wrap;rounded=0;fillColor=#f5f5f5;fontColor=#333333;strokeColor=#666666;" vertex="1" parent="1">
          <mxGeometry x="1650" y="408" width="60" height="30" as="geometry" />
        </mxCell>
        <mxCell id="7kd3n6yTpFLGsjgeZZEd-80" value="" style="shape=flexArrow;endArrow=classic;html=1;rounded=0;endWidth=17.77777777777778;endSize=10.893333333333333;width=24;" edge="1" parent="1">
          <mxGeometry width="50" height="50" relative="1" as="geometry">
            <mxPoint x="980" y="380" as="sourcePoint" />
            <mxPoint x="1240" y="380" as="targetPoint" />
          </mxGeometry>
        </mxCell>
      </root>
    </mxGraphModel>
  </diagram>
</mxfile>
